<svg xmlns="http://www.w3.org/2000/svg" style="display: none;"><symbol id="cityscape" viewBox="0 0 60 60"><title>cityscape</title><g id="017---CN-Tower" fill="rgb(0,0,0)" fill-rule="nonzero" transform="translate(0 -1)"><path id="Shape" d="m58 37v-2c0-1.1045695-.8954305-2-2-2v-2c0-1.1045695-.8954305-2-2-2h-6v-2.382c.0034625-.7570187-.4228994-1.4504382-1.1-1.789l-6-3c-.6204662-.3126559-1.3587395-.2808963-1.9500631.0838891-.5913235.3647855-.9509596 1.0103225-.9499369 1.7051109v17.382h-2v-3c0-1.1045695-.8954305-2-2-2h-4.1c-.243-3.728-.476-7.832-.681-12.268.4715902-.269499.8126034-.7199687.944-1.247l.629-2.514c1.814998-.1378721 3.2173335-1.6507729 3.2173335-3.471s-1.4023355-3.3331279-3.2173335-3.471l-.629-2.514c-.1532863-.6081175-.5842675-1.10839652-1.163-1.35v-2.165c.5522847 0 1-.44771525 1-1s-.4477153-1-1-1v-.5c.0033847-.9289377-.3645594-1.82071613-1.022-2.477-1.0009709-1.00350782-2.5083542-1.30424372-3.8177798-.76167981-1.3094255.5425639-2.1623505 1.82129975-2.1602202 3.23867981v.5c-.5522847 0-1 .44771525-1 1s.4477153 1 1 1v2.165c-.5771962.24261485-1.0065538.74272944-1.159 1.35l-.629 2.514c-1.814998.1378721-3.2173335 1.6507729-3.2173335 3.471s1.4023355 3.3331279 3.2173335 3.471l.629 2.514c.1313966.5270313.4724098.977501.944 1.247-.117 2.532-.243 4.961-.375 7.268h-10.41v-1c0-1.1045695-.8954305-2-2-2h-4c-1.1045695 0-2 .8954305-2 2v2c-1.1045695 0-2 .8954305-2 2v2.278c-.61675126.3544126-.997855 1.0106732-1 1.722v22c0 .5522847.44771525 1 1 1h58c.5522847 0 1-.4477153 1-1v-21c0-1.1045695-.8954305-2-2-2zm-10-2h8v2h-8zm6-4v2h-6v-2zm-16 16h-3c-.5522847 0-1 .4477153-1 1s.4477153 1 1 1h3v2h-3c-.5522847 0-1 .4477153-1 1s.4477153 1 1 1h3v2h-3c-.5522847 0-1 .4477153-1 1s.4477153 1 1 1h3v2h-6.112c-.238-2.045-.853-7.634-1.5-16h7.612zm-9.781-25h-5.439l-.5-2h6.439zm-4.444 2h3.45c.318 6.841.7 12.9 1.085 18v.012c.654 8.707 1.29 14.642 1.564 16.988h-8.748c.428-3.72 1.788-16.467 2.649-35zm10.225 14v3h-3.758c-.0713333-.968-.1423333-1.968-.213-3zm-6-25h-5.719l.5-2h5.439l.5 2zm-4-8.5c0-.82842712.6715729-1.5 1.5-1.5s1.5.67157288 1.5 1.5v4.5h-3zm-5 12c0-.8284271.6715729-1.5 1.5-1.5h10c.8284271 0 1.5.6715729 1.5 1.5s-.6715729 1.5-1.5 1.5h-10c-.8284271 0-1.5-.6715729-1.5-1.5zm-14 13.5h4v2h-4zm-2 4h6v2h-6zm-1 4h7v21h-7zm9-1v-4h10.293c-.84 13.905-1.858 23.223-2.181 26h-8.112zm29 18h3c.5522847 0 1-.4477153 1-1s-.4477153-1-1-1h-3v-2h3c.5522847 0 1-.4477153 1-1s-.4477153-1-1-1h-3v-2h3c.5522847 0 1-.4477153 1-1s-.4477153-1-1-1h-3v-2h3c.5522847 0 1-.4477153 1-1s-.4477153-1-1-1h-3v-2h3c.5522847 0 1-.4477153 1-1s-.4477153-1-1-1h-3v-2h3c.5522847 0 1-.4477153 1-1s-.4477153-1-1-1h-3v-2h3c.5522847 0 1-.4477153 1-1s-.4477153-1-1-1h-3v-5.382l6 3v32.382h-6zm18 4h-10v-20h10z"/><path id="Shape" d="m55 42h-4c-.5522847 0-1 .4477153-1 1s.4477153 1 1 1h4c.5522847 0 1-.4477153 1-1s-.4477153-1-1-1z"/><path id="Shape" d="m55 46h-4c-.5522847 0-1 .4477153-1 1s.4477153 1 1 1h4c.5522847 0 1-.4477153 1-1s-.4477153-1-1-1z"/><path id="Shape" d="m55 50h-4c-.5522847 0-1 .4477153-1 1s.4477153 1 1 1h4c.5522847 0 1-.4477153 1-1s-.4477153-1-1-1z"/><path id="Shape" d="m55 54h-4c-.5522847 0-1 .4477153-1 1s.4477153 1 1 1h4c.5522847 0 1-.4477153 1-1s-.4477153-1-1-1z"/><path id="Shape" d="m6 41h-1c-.55228475 0-1 .4477153-1 1s.44771525 1 1 1h1c.55228475 0 1-.4477153 1-1s-.44771525-1-1-1z"/><path id="Shape" d="m6 45h-1c-.55228475 0-1 .4477153-1 1s.44771525 1 1 1h1c.55228475 0 1-.4477153 1-1s-.44771525-1-1-1z"/><path id="Shape" d="m6 49h-1c-.55228475 0-1 .4477153-1 1s.44771525 1 1 1h1c.55228475 0 1-.4477153 1-1s-.44771525-1-1-1z"/><path id="Shape" d="m6 53h-1c-.55228475 0-1 .4477153-1 1s.44771525 1 1 1h1c.55228475 0 1-.4477153 1-1s-.44771525-1-1-1z"/><path id="Shape" d="m14 37h2c.5522847 0 1-.4477153 1-1s-.4477153-1-1-1h-2c-.5522847 0-1 .4477153-1 1s.4477153 1 1 1z"/><path id="Shape" d="m16 39h-2c-.5522847 0-1 .4477153-1 1s.4477153 1 1 1h2c.5522847 0 1-.4477153 1-1s-.4477153-1-1-1z"/><path id="Shape" d="m16 43h-2c-.5522847 0-1 .4477153-1 1s.4477153 1 1 1h2c.5522847 0 1-.4477153 1-1s-.4477153-1-1-1z"/><path id="Shape" d="m16 47h-2c-.5522847 0-1 .4477153-1 1s.4477153 1 1 1h2c.5522847 0 1-.4477153 1-1s-.4477153-1-1-1z"/><path id="Shape" d="m16 51h-2c-.5522847 0-1 .4477153-1 1s.4477153 1 1 1h2c.5522847 0 1-.4477153 1-1s-.4477153-1-1-1z"/><path id="Shape" d="m16 55h-2c-.5522847 0-1 .4477153-1 1s.4477153 1 1 1h2c.5522847 0 1-.4477153 1-1s-.4477153-1-1-1z"/></g></symbol><symbol id="building" viewBox="0 0 480 480"><title>building</title><path d="M440,464v-41.424c15.363-6.478,24.978-21.932,24-38.576c0-22.056-14.352-40-32-40s-32,17.944-32,40 c-0.978,16.644,8.637,32.098,24,38.576V464h-40V216c0.001-3.032-1.712-5.805-4.424-7.16L320,179.056V136 c0.002-3.573-2.365-6.714-5.8-7.696L208,97.96V8c0-4.418-3.582-8-8-8H40c-4.418,0-8,3.582-8,8v456H0v16h480v-16H440z M192,464H48 v-16h72v-16H48v-32h72v-16H48v-32h72v-16H48v-32h72v-16H48v-32h72v-16H48v-32h72v-16H48v-32h72v-16H48v-32h72V96H48V64h72V48H48 V16h144V464z M304,464h-96v-16h56v-16h-56v-32h56v-16h-56v-32h56v-16h-56v-32h56v-16h-56v-32h56v-16h-56v-32h56v-16h-56v-32h56 v-16h-56v-29.392l96,27.424V464z M368,464h-48v-16h24v-16h-24v-32h24v-16h-24v-32h24v-16h-24v-32h24v-16h-24v-32h24v-16h-24 v-43.056l48,24V464z M424,404.56c-5.373-5.467-8.265-12.9-8-20.56c0-13.008,7.328-24,16-24s16,10.992,16,24 c0.259,7.659-2.632,15.09-8,20.56V392h-16V404.56z"/></symbol><symbol id="modern-house" viewBox="0 0 64 64"><title>modern-house</title><path d="M58,56H57V38h3a1,1,0,0,0,1-1V34a1,1,0,0,0-1-1H59V27h1a1,1,0,0,0,1-1V23a1,1,0,0,0-1-1H29V14a1,1,0,0,0-1.352-.937l-24,9A1,1,0,0,0,3,23V37a1,1,0,0,0,1,1H7V56H2a1,1,0,0,0,0,2H58a1,1,0,0,0,0-2ZM57,33H32V27H57Zm2-9v1H31a1,1,0,0,0-1,1v8a1,1,0,0,0,1,1H59v1H29V24ZM5,23.693l22-8.25V36H5ZM12,56V42h3V56Zm5,0V42h3V56Zm5,0V42h3V56Zm5,0V42h3V56Zm5,0V41a1,1,0,0,0-1-1H11a1,1,0,0,0-1,1V56H9V38H55V56Z"/><path d="M62,56H61a1,1,0,0,0,0,2h1a1,1,0,0,0,0-2Z"/><path d="M53,40H35a1,1,0,0,0-1,1V51a1,1,0,0,0,1,1H53a1,1,0,0,0,1-1V41A1,1,0,0,0,53,40ZM36,50V42h4v8Zm6,0V42h4v8Zm10,0H48V42h4Z"/><path d="M25,35a1,1,0,0,0,1-1V26a1,1,0,0,0-1-1H8a1,1,0,0,0-1,1v8a1,1,0,0,0,1,1Zm-1-8v6H20V27Zm-6,0v6H15V27ZM9,27h4v6H9Z"/><path d="M35,17h7a.929.929,0,0,0,.5-.145,3.5,3.5,0,0,0-.618-6.834,3.991,3.991,0,0,0-7.346-.994A4,4,0,0,0,35,17Zm-.035-6,.147.016a.992.992,0,0,0,1.01-.669A1.993,1.993,0,0,1,40,10.958c0,.033-.005.067-.005.093a1,1,0,0,0,1.2.98A1.528,1.528,0,0,1,43,13.5a1.5,1.5,0,0,1-1.2,1.47,1.088,1.088,0,0,0-.112.03H35a2,2,0,0,1-.035-4Z"/></symbol><symbol id="modern-house-1" viewBox="0 0 64 64"><title>modern-house-1</title><path d="M58,57H57V35a1,1,0,0,0-1-1H51V25a1,1,0,0,0-.581-.908L38,18.36V13a1,1,0,0,0-1-1H17a1,1,0,0,0-1,1V57H10V55.91a5.976,5.976,0,0,0,3.793-9.5,4.953,4.953,0,0,0-1.136-4.808A3.909,3.909,0,0,0,13,40a4,4,0,0,0-8,0,3.917,3.917,0,0,0,.343,1.606,4.951,4.951,0,0,0-1.136,4.807A5.976,5.976,0,0,0,8,55.91V57H2a1,1,0,0,0,0,2H58a1,1,0,0,0,0-2ZM5,50a3.982,3.982,0,0,1,1.077-2.709,1,1,0,0,0,.182-1.084,2.959,2.959,0,0,1,.957-3.6,1,1,0,0,0,.2-1.4A1.981,1.981,0,0,1,7,40a2,2,0,0,1,4,0,1.981,1.981,0,0,1-.414,1.2,1,1,0,0,0,.2,1.4,2.959,2.959,0,0,1,.957,3.6,1,1,0,0,0,.182,1.084A3.969,3.969,0,0,1,10,53.858V51a1,1,0,0,0-2,0v2.858A4,4,0,0,1,5,50ZM49,25.64V34H38V20.563ZM18,14H36V57H18ZM42,57V47h9V57Zm11,0V46a1,1,0,0,0-1-1H41a1,1,0,0,0-1,1V57H38V36H55V57Z"/><path d="M62,57H61a1,1,0,0,0,0,2h1a1,1,0,0,0,0-2Z"/><path d="M32,16H22a1,1,0,0,0-1,1V31a1,1,0,0,0,1,1H32a1,1,0,0,0,1-1V17A1,1,0,0,0,32,16ZM23,30V18h3V30Zm8,0H28V18h3Z"/><path d="M32,34H22a1,1,0,0,0-1,1V49a1,1,0,0,0,1,1H32a1,1,0,0,0,1-1V35A1,1,0,0,0,32,34ZM23,48V36h3V48Zm8,0H28V36h3Z"/><path d="M52,38H41a1,1,0,0,0-1,1v4a1,1,0,0,0,1,1H52a1,1,0,0,0,1-1V39A1,1,0,0,0,52,38Zm-1,4H42V40h9Z"/><path d="M55.879,11.021a3.991,3.991,0,0,0-7.346-.994A4,4,0,0,0,49,18h7a.929.929,0,0,0,.5-.145,3.5,3.5,0,0,0-.618-6.834ZM55.8,15.97a1.088,1.088,0,0,0-.112.03H49a2,2,0,0,1-.035-4l.147.016a.986.986,0,0,0,1.01-.669A1.993,1.993,0,0,1,54,11.958c0,.033-.005.067-.005.093a1,1,0,0,0,1.2.98A1.529,1.529,0,0,1,57,14.5,1.5,1.5,0,0,1,55.8,15.97Z"/></symbol><symbol id="bricklayer" viewBox="0 0 512 512"><title>bricklayer</title><path d="m23.99951 496.00146h464a7.99977 7.99977 0 0 0 8-8v-132.9121a46.17621 46.17621 0 0 0 -62.38965-43.23636l-21.95605 8.23388a24.146 24.146 0 0 1 -27.64893-8.07812 40.20838 40.20838 0 0 0 -32.01465-16.00733h-14.46215l13.6853-28.541a8.00034 8.00034 0 0 0 -.05859-7.03662l-32-64a7.99926 7.99926 0 0 0 -7.15528-4.42237h-32v-40a7.99977 7.99977 0 0 0 8-8v-96.00044a32 32 0 0 0 -64 0v41.442l-5.25146 1.05023a111.61971 111.61971 0 0 1 -52.31787-2.11767 83.28226 83.28226 0 0 0 -60.271 5.60205 40.80065 40.80065 0 0 1 -36.31885-.00049 56.90066 56.90066 0 0 0 -25.31494-5.97559h-20.52588a7.99977 7.99977 0 0 0 -8 8v392a7.99977 7.99977 0 0 0 8 7.99993zm248-360h-32v-72h32zm-40 24v32h-32a7.99925 7.99925 0 0 0 -7.15527 4.42237l-29.78882 59.57763h-3.05591v-96zm-136 208v-96h66.93726l45.47412 96zm-64 0v-96h48v96zm112-112h-112v-96h112zm-112 128h112v96h-112zm128 0h55.99049l10.095 21.31154a32.67538 32.67538 0 0 0 59.564-1.11572l9.68383-20.19581h56.66675v96h-192zm320 96h-112v-96h112zm-128.00928-168a24.13309 24.13309 0 0 1 19.21485 9.60694 40.23656 40.23656 0 0 0 46.06689 13.46l21.95557-8.23389a30.176 30.176 0 0 1 40.772 28.25489v12.9121h-176.9949l26.85156-56zm-44.935-104 28.03711 56.07374-63.94879 133.36669q-.08349.17578-.15917.3545a16.67541 16.67541 0 0 1 -30.43946.66748l-63.64844-134.36768 28.04737-56.09473h27.05566v40a24 24 0 0 0 48 0v-40zm-43.05567 40a8 8 0 0 1 -16 0v-96h16zm-8-216a16.01792 16.01792 0 0 1 16 15.99952v.00048h-32v-.00046a16.01792 16.01792 0 0 1 15.99995-15.99954zm-211.47412 72a40.81853 40.81853 0 0 1 18.15967 4.28663 56.87507 56.87507 0 0 0 50.62939 0 67.32269 67.32269 0 0 1 48.72022-4.52784 127.68988 127.68988 0 0 0 59.85107 2.42237l2.11377-.42273v38.24157h-192v-40z"/></symbol><symbol id="engineer" viewBox="-56 0 480 480"><title>engineer</title><path d="m368 480v-72c-.046875-39.746094-32.253906-71.953125-72-72h-64v-38.238281c22.25-14.425781 36.769531-38.152344 39.480469-64.53125l1.816406-17.230469h6.703125c12.9375-.007812 24.59375-7.804688 29.542969-19.757812 4.949219-11.949219 2.214843-25.707032-6.925781-34.859376-1.386719-1.363281-2.890626-2.601562-4.496094-3.703124 9.03125-4.152344 14.542968-13.46875 13.828125-23.382813-.710938-9.917969-7.496094-18.351563-17.027344-21.167969-3.222656-24.34375-14.371094-46.953125-31.722656-64.328125-5.726563-5.703125-12.042969-10.78125-18.839844-15.152343-8.792969-5.621094-18.34375-9.964844-28.359375-12.894532v-12.753906c0-4.417969-3.582031-8-8-8h-48c-4.417969 0-8 3.582031-8 8v12.753906c-10 2.9375-19.53125 7.28125-28.3125 12.902344-27.632812 17.800781-46.058594 46.839844-50.398438 79.421875-9.585937 2.753906-16.453124 11.175781-17.210937 21.121094-.757813 9.941406 4.75 19.308593 13.808594 23.480469-11.5 7.953124-16.507813 22.457031-12.359375 35.8125 4.148437 13.355468 16.488281 22.46875 30.472656 22.507812h6.703125l1.816406 17.222656c2.710938 26.382813 17.226563 50.113282 39.480469 64.539063v38.238281h-64c-39.746094.046875-71.953125 32.253906-72 72v72h16v-72c.03125-27.8125 20.472656-51.386719 48-55.359375v127.359375h16v-128h16v128h16v-128h3.71875l29.601562 44.441406 30.679688 45.957032v37.601562h16v-37.601562l30.65625-45.984376 29.625-44.414062h3.71875v128h16v-128h16v128h16v-127.359375c27.527344 3.972656 47.96875 27.546875 48 55.359375v72zm-152-102.398438-17.046875-25.601562h34.09375zm-9.601562 14.398438-22.398438 33.601562-22.398438-33.601562 22.398438-33.601562zm73.601562-192h-5.015625l3.375-32h1.640625c8.835938 0 16 7.164062 16 16s-7.164062 16-16 16zm-112-184h32v64h-32zm-48 40.710938v39.289062h16v-51.023438c5.089844-2.972656 10.445312-5.460937 16-7.433593v50.457031c0 4.417969 3.582031 8 8 8h48c4.417969 0 8-3.582031 8-8v-50.457031c5.554688 1.96875 10.914062 4.457031 16 7.433593v51.023438h16v-39.320312c1.289062 1.152343 2.65625 2.25 3.863281 3.457031 14.101563 14.085937 23.464844 32.210937 26.792969 51.863281h-189.128906c3.632812-21.335938 14.371094-40.820312 30.472656-55.289062zm-40 71.289062h208c4.417969 0 8 3.582031 8 8s-3.582031 8-8 8h-208c-4.417969 0-8-3.582031-8-8s3.582031-8 8-8zm8 72c-8.835938 0-16-7.164062-16-16s7.164062-16 16-16h1.601562l3.375 32zm24.441406 31.558594-7.554687-71.558594h158.226562l-7.554687 71.566406c-3.839844 36.636719-34.722656 64.453125-71.558594 64.453125s-67.71875-27.816406-71.558594-64.453125zm39.558594 74.472656c20.589844 7.957031 43.410156 7.957031 64 0v29.96875h-64zm17.046875 45.96875-17.046875 25.601562-17.046875-25.601562zm0 0"/><path d="m192 224v-16h-12.902344l12.496094-37.472656-15.203125-5.054688-16 48c-.8125 2.441406-.402344 5.125 1.105469 7.214844 1.507812 2.085938 3.929687 3.316406 6.503906 3.3125zm0 0"/><path d="m210.34375 226.34375c-8.726562 8.773438-20.601562 13.691406-32.976562 13.65625h-9.367188v16h9.367188c16.621093.050781 32.570312-6.558594 44.289062-18.34375zm0 0"/><path d="m152 184c0 8.835938-7.164062 16-16 16s-16-7.164062-16-16 7.164062-16 16-16 16 7.164062 16 16zm0 0"/><path d="m248 184c0 8.835938-7.164062 16-16 16s-16-7.164062-16-16 7.164062-16 16-16 16 7.164062 16 16zm0 0"/></symbol><symbol id="paint-roller" viewBox="0 0 512 512"><title>paint-roller</title><path d="M456.532,60.458V25.6c0-14.114-11.486-25.6-25.6-25.6h-358.4c-14.114,0-25.6,11.486-25.6,25.6H29.698 c-9.318,0-16.896,7.586-16.896,16.896v51.541c0,9.31,7.578,16.896,16.896,16.896h17.234c0,14.114,11.486,25.6,25.6,25.6v51.2 c0,18.825,15.309,34.133,34.133,34.133c6.212,0,12.041-1.664,17.067-4.582V230.4c0,18.825,15.309,34.133,34.133,34.133 c18.825,0,34.133-15.309,34.133-34.133v-37.018c3.883,1.843,8.226,2.884,12.8,2.884c16.469,0,29.867-13.397,29.867-29.867 v-29.867h196.267c14.114,0,25.6-11.486,25.6-25.6V77.88c14.707,3.798,25.6,17.175,25.6,33.054v34.133 c0,16.384-11.708,31.13-27.17,34.296c-6.647,1.186-115.413,10.778-186.163,16.904c-18.825,0-34.133,15.266-34.133,34.031V281.6 h-51.203c-2.56,0-4.975,1.143-6.596,3.123c-1.621,1.98-2.27,4.574-1.766,7.083l7.023,35.132 c1.664,8.337,9.054,14.396,17.57,14.396c0.461,0,0.836,0.375,0.836,0.845v125.688c0,22.579,16.922,41.873,38.511,43.938 c1.357,0.128,2.714,0.196,4.07,0.196c10.607,0,20.924-3.934,28.791-11.093c8.875-8.073,13.961-19.584,13.961-31.573v-42.616 c0-0.017,0.003-0.034,0.003-0.051s-0.002-0.034-0.003-0.051v-51.098c0-0.017,0.003-0.034,0.003-0.051s-0.002-0.034-0.003-0.051 v-33.238c0-0.469,0.375-0.845,0.845-0.845c8.516,0,15.898-6.059,17.57-14.396l7.023-35.132c0.495-2.509-0.154-5.103-1.766-7.083 c-1.63-1.98-4.045-3.123-6.605-3.123h-51.197v-51.302c0-9.506,7.501-16.964,17.801-16.998 c30.191-2.603,181.163-15.65,188.783-17.203c23.689-4.838,40.883-26.308,40.883-51.029v-34.133 C499.198,85.605,480.717,64.532,456.532,60.458z M29.868,94.037l-0.171-51.371h17.234v51.251L29.868,94.037z M439.465,110.933 c0,4.702-3.823,8.533-8.533,8.533h-204.8c-4.719,0-8.533,3.823-8.533,8.533v38.4c0,7.057-5.743,12.8-12.8,12.8 s-12.8-5.743-12.8-12.8c0-4.71-3.814-8.533-8.533-8.533s-8.533,3.823-8.533,8.533v64c0,9.412-7.654,17.067-17.067,17.067 c-9.412,0-17.067-7.654-17.067-17.067v-42.667c0-4.71-3.814-8.533-8.533-8.533c-4.719,0-8.533,3.823-8.533,8.533 c0,9.412-7.654,17.067-17.067,17.067c-9.412,0-17.067-7.654-17.067-17.067V128c0-4.71-3.814-8.533-8.533-8.533h-8.533 c-4.71,0-8.533-3.831-8.533-8.533v-8.466c0-0.023,0.003-0.045,0.003-0.068V34.133c0-0.023-0.003-0.045-0.003-0.068V25.6 c0-4.702,3.823-8.533,8.533-8.533h358.4c4.71,0,8.533,3.831,8.533,8.533V110.933z M268.796,418.133h-51.2V384h51.2V418.133z M260.416,488.277c-5.41,4.915-12.425,7.27-19.763,6.537c-12.919-1.237-23.057-13.073-23.057-26.948V435.2h51.2v34.133 C268.796,476.527,265.741,483.439,260.416,488.277z M287.543,323.593c-0.085,0.393-0.435,0.674-0.836,0.674 c-9.873,0-17.911,8.038-17.911,17.911v24.755h-51.2v-24.755c0-9.873-8.03-17.911-17.903-17.911c-0.401,0-0.751-0.282-0.836-0.683 l-4.983-24.917h98.654L287.543,323.593z"/><path d="M132.265,76.8c-4.719,0-8.533,3.823-8.533,8.533v59.733c0,4.71,3.814,8.533,8.533,8.533c4.719,0,8.533-3.823,8.533-8.533 V85.333C140.798,80.623,136.984,76.8,132.265,76.8z"/><path d="M183.465,42.667c-4.719,0-8.533,3.823-8.533,8.533v59.733c0,4.71,3.814,8.533,8.533,8.533s8.533-3.823,8.533-8.533V51.2 C191.998,46.49,188.184,42.667,183.465,42.667z"/></symbol></svg>