<?xml version="1.0" encoding="utf-8"?>
<!-- Generator: Adobe Illustrator 19.0.0, SVG Export Plug-In . SVG Version: 6.00 Build 0)  -->
<svg version="1.1" id="Layer_1" xmlns="http://www.w3.org/2000/svg" xmlns:xlink="http://www.w3.org/1999/xlink" x="0px" y="0px"
	 viewBox="28 107 696.6 269" style="enable-background:new 28 107 696.6 269;" xml:space="preserve">
<style type="text/css">
	.st0{fill:#0099CC;}
	.st1{font-family: 'Montserrat', sans-serif;
        font-weight: 700; }
	.st2{font-size:65.692px;}
	.st3{fill:#555555;}
	.st4{font-family: 'Montserrat', sans-serif;
         font-weight: 400;  }
	.st5{font-size:80px;}
</style>
<style>
@import 'https://fonts.googleapis.com/css?family=Montserrat';
</style>
<g id="symbol" transform="translate(50,50) scale(1.6,1.6)">
	<g>
		<g transform="scale(1.1123467502013005)">
			<g>
				<g>
					<path class="st0" d="M36.1,150h-19c-0.8,0-1.4-0.6-1.4-1.4v-19c0-0.8,0.6-1.4,1.4-1.4H36c0.8,0,1.4,0.6,1.4,1.4v18.9
						C37.5,149.3,36.9,150,36.1,150z"/>
					<path class="st0" d="M62.7,150h-19c-0.8,0-1.4-0.6-1.4-1.4v-19c0-0.8,0.6-1.4,1.4-1.4h18.9c0.8,0,1.4,0.6,1.4,1.4v18.9
						C64.1,149.3,63.4,150,62.7,150z"/>
					<path class="st0" d="M89.3,150h-19c-0.8,0-1.4-0.6-1.4-1.4v-19c0-0.8,0.6-1.4,1.4-1.4h18.9c0.8,0,1.4,0.6,1.4,1.4v18.9
						C90.7,149.3,90,150,89.3,150z"/>
					<path class="st0" d="M36.1,123.4h-19c-0.8,0-1.4-0.6-1.4-1.4v-19c0-0.8,0.6-1.4,1.4-1.4H36c0.8,0,1.4,0.6,1.4,1.4v18.9
						C37.5,122.7,36.9,123.4,36.1,123.4z"/>
					<path class="st0" d="M62.7,119.3h-19c-0.8,0-1.4-0.6-1.4-1.4v-19c0-0.8,0.6-1.4,1.4-1.4h18.9c0.8,0,1.4,0.6,1.4,1.4v18.9
						C64.1,118.6,63.4,119.3,62.7,119.3z"/>
					<path class="st0" d="M89.3,113.1h-19c-0.8,0-1.4-0.6-1.4-1.4v-19c0-0.8,0.6-1.4,1.4-1.4h18.9c0.8,0,1.4,0.6,1.4,1.4v18.9
						C90.7,112.5,90,113.1,89.3,113.1z"/>
					<path class="st0" d="M36.1,96.8h-19c-0.8,0-1.4-0.6-1.4-1.4v-19c0-0.8,0.6-1.4,1.4-1.4H36c0.8,0,1.4,0.6,1.4,1.4v18.9
						C37.5,96.1,36.9,96.8,36.1,96.8z"/>
					<path class="st0" d="M62.7,88h-19c-0.8,0-1.4-0.6-1.4-1.4v-19c0-0.8,0.6-1.4,1.4-1.4h18.9c0.8,0,1.4,0.6,1.4,1.4v18.9
						C64.1,87.4,63.4,88,62.7,88z"/>
					<path class="st0" d="M89.3,81.8h-19c-0.8,0-1.4-0.6-1.4-1.4V61.5c0-0.8,0.6-1.4,1.4-1.4h18.9c0.8,0,1.4,0.6,1.4,1.4v18.9
						C90.7,81.2,90,81.8,89.3,81.8z"/>
				</g>
			</g>
		</g>
	</g>
</g>
<g id="subtitle" transform="translate(209.481689453125,139.03630256652832) scale(2.1897327099691397,2.1897327099691397)">
	<g>
		<text  transform="matrix(0.4567 0 0 0.4567 9.59 78.3253)" class="st1 st2">Holdings</text>
	</g>
</g>
<g id="title" transform="translate(209.481689453125,56) scale(1,1)">
	<g>
		<text transform="matrix(1 0 0 1 20.9997 189.8441)" class="st3 st4 st5">Sandhoora</text>
	</g>
</g>



</svg>
